<svg viewBox="0 0 24 24" fill="none" xmlns="http://www.w3.org/2000/svg">
<path fill-rule="evenodd" clip-rule="evenodd" d="M2 17C3.10457 17 4 17.8954 4 19C4 20.1046 3.10457 21 2 21C0.89543 21 0 20.1046 0 19C0 17.8954 0.89543 17 2 17ZM24 18V20H6V18H24ZM2 10C3.10457 10 4 10.8954 4 12C4 13.1046 3.10457 14 2 14C0.89543 14 0 13.1046 0 12C0 10.8954 0.89543 10 2 10ZM24 11V13H6V11H24ZM2 3C3.10457 3 4 3.89543 4 5C4 6.10457 3.10457 7 2 7C0.89543 7 0 6.10457 0 5C0 3.89543 0.89543 3 2 3ZM24 4V6H6V4H24Z" fill="#3E3832"/>
</svg>
